# xmcd CD database file
#
# Track frame offsets:
#	150
#	4780
#	20837
#	34912
#	44625
#	56262
#	60852
#	75577
#	93342
#	103927
#	119985
#	137522
#	155232
#	157575
#	173760
#	191862
#	195535
#
# Disc length: 2842 seconds
#
# Revision: 2
# Processed by: cddbd v1.5.2PL0 Copyright (c) Steve Scherf et al.
# Submitted via: CDex 1.70beta2
#
DISCID=e20b1811
DTITLE=Erick Sermon - Double or Nothing
DYEAR=1995
DGENRE=Rap
TTITLE0=Intro
TTITLE1=Bomdigi
TTITLE2=Freak out
TTITLE3=In the heat
TTITLE4=Tell 'em
TTITLE5=In the Studio
TTITLE6=Boy meets world
TTITLE7=Welcome
TTITLE8=Live in the backyard
TTITLE9=Set it off
TTITLE10=Focus
TTITLE11=Move on
TTITLE12=Smooth thought
TTITLE13=Do your thing
TTITLE14=Man above
TTITLE15=The message
TTITLE16=Open fire
EXTD=YEAR: 1995
EXTT0=
EXTT1=
EXTT2=
EXTT3=
EXTT4=
EXTT5=
EXTT6=
EXTT7=
EXTT8=
EXTT9=
EXTT10=
EXTT11=
EXTT12=
EXTT13=
EXTT14=
EXTT15=
EXTT16=
PLAYORDER=
